<mxfile host="Electron" agent="Mozilla/5.0 (Windows NT 10.0; Win64; x64) AppleWebKit/537.36 (KHTML, like Gecko) draw.io/24.7.8 Chrome/128.0.6613.36 Electron/32.0.1 Safari/537.36" version="24.7.8">
  <diagram name="Page-1" id="AIigmaH4G415NGv4w28b">
    <mxGraphModel dx="2140" dy="621" grid="1" gridSize="10" guides="1" tooltips="1" connect="1" arrows="1" fold="1" page="1" pageScale="1" pageWidth="850" pageHeight="1100" math="0" shadow="0">
      <root>
        <mxCell id="0" />
        <mxCell id="1" parent="0" />
        <mxCell id="CXwAQgRN35xxSamlwrBf-2" value="AUTHOR" style="ellipse;whiteSpace=wrap;html=1;align=center;" parent="1" vertex="1">
          <mxGeometry x="-20" y="150" width="100" height="40" as="geometry" />
        </mxCell>
        <mxCell id="CXwAQgRN35xxSamlwrBf-3" value="BOOKID" style="ellipse;whiteSpace=wrap;html=1;align=center;fontStyle=4;" parent="1" vertex="1">
          <mxGeometry x="50" y="210" width="100" height="40" as="geometry" />
        </mxCell>
        <mxCell id="CXwAQgRN35xxSamlwrBf-5" style="edgeStyle=orthogonalEdgeStyle;rounded=0;orthogonalLoop=1;jettySize=auto;html=1;exitX=0.5;exitY=1;exitDx=0;exitDy=0;" parent="1" edge="1">
          <mxGeometry relative="1" as="geometry">
            <mxPoint x="185" y="220" as="sourcePoint" />
            <mxPoint x="185" y="220" as="targetPoint" />
          </mxGeometry>
        </mxCell>
        <mxCell id="CXwAQgRN35xxSamlwrBf-7" value="TITLE" style="ellipse;whiteSpace=wrap;html=1;align=center;" parent="1" vertex="1">
          <mxGeometry x="-120" y="310" width="100" height="40" as="geometry" />
        </mxCell>
        <mxCell id="CXwAQgRN35xxSamlwrBf-8" value="PUBLISH" style="ellipse;whiteSpace=wrap;html=1;align=center;" parent="1" vertex="1">
          <mxGeometry x="-130" y="220" width="100" height="40" as="geometry" />
        </mxCell>
        <mxCell id="eC1AK_5KEr0Wa4dRXDWK-27" style="edgeStyle=orthogonalEdgeStyle;rounded=0;orthogonalLoop=1;jettySize=auto;html=1;exitX=0;exitY=0;exitDx=0;exitDy=0;" parent="1" source="CXwAQgRN35xxSamlwrBf-9" target="CXwAQgRN35xxSamlwrBf-7" edge="1">
          <mxGeometry relative="1" as="geometry">
            <mxPoint x="-70" y="270" as="targetPoint" />
            <Array as="points">
              <mxPoint x="-115" y="230" />
              <mxPoint x="-120" y="230" />
            </Array>
          </mxGeometry>
        </mxCell>
        <mxCell id="CXwAQgRN35xxSamlwrBf-9" value="PRICE" style="ellipse;whiteSpace=wrap;html=1;align=center;" parent="1" vertex="1">
          <mxGeometry x="-130" y="130" width="100" height="40" as="geometry" />
        </mxCell>
        <mxCell id="CXwAQgRN35xxSamlwrBf-20" style="edgeStyle=orthogonalEdgeStyle;rounded=0;orthogonalLoop=1;jettySize=auto;html=1;" parent="1" source="CXwAQgRN35xxSamlwrBf-10" edge="1">
          <mxGeometry relative="1" as="geometry">
            <mxPoint x="380" y="130" as="targetPoint" />
            <Array as="points">
              <mxPoint x="355" y="186" />
              <mxPoint x="381" y="186" />
            </Array>
          </mxGeometry>
        </mxCell>
        <mxCell id="CXwAQgRN35xxSamlwrBf-10" value="BROOWER" style="shape=rhombus;perimeter=rhombusPerimeter;whiteSpace=wrap;html=1;align=center;" parent="1" vertex="1">
          <mxGeometry x="300" y="240" width="110" height="70" as="geometry" />
        </mxCell>
        <mxCell id="jmydCTeTB-2I-J8kcOm2-3" style="edgeStyle=orthogonalEdgeStyle;rounded=0;orthogonalLoop=1;jettySize=auto;html=1;" parent="1" source="CXwAQgRN35xxSamlwrBf-11" edge="1">
          <mxGeometry relative="1" as="geometry">
            <mxPoint x="10" y="320" as="targetPoint" />
          </mxGeometry>
        </mxCell>
        <mxCell id="CXwAQgRN35xxSamlwrBf-11" value="BOOK" style="whiteSpace=wrap;html=1;align=center;" parent="1" vertex="1">
          <mxGeometry x="-30" y="250" width="110" height="50" as="geometry" />
        </mxCell>
        <mxCell id="eC1AK_5KEr0Wa4dRXDWK-10" value="" style="edgeStyle=orthogonalEdgeStyle;rounded=0;orthogonalLoop=1;jettySize=auto;html=1;" parent="1" target="eC1AK_5KEr0Wa4dRXDWK-9" edge="1">
          <mxGeometry relative="1" as="geometry">
            <mxPoint x="850" y="245" as="sourcePoint" />
          </mxGeometry>
        </mxCell>
        <mxCell id="CXwAQgRN35xxSamlwrBf-21" value="BRROWERID" style="ellipse;whiteSpace=wrap;html=1;align=center;dashed=1;" parent="1" vertex="1">
          <mxGeometry x="325" y="100" width="100" height="40" as="geometry" />
        </mxCell>
        <mxCell id="CXwAQgRN35xxSamlwrBf-31" value="LASTNAME" style="ellipse;whiteSpace=wrap;html=1;align=center;fontStyle=4;" parent="1" vertex="1">
          <mxGeometry x="810" y="300" width="100" height="40" as="geometry" />
        </mxCell>
        <mxCell id="CXwAQgRN35xxSamlwrBf-32" value="FIRSTNAME" style="ellipse;whiteSpace=wrap;html=1;align=center;" parent="1" vertex="1">
          <mxGeometry x="790" y="160" width="100" height="40" as="geometry" />
        </mxCell>
        <mxCell id="CXwAQgRN35xxSamlwrBf-34" value="ADDRESS" style="ellipse;whiteSpace=wrap;html=1;align=center;" parent="1" vertex="1">
          <mxGeometry x="570" y="170" width="100" height="40" as="geometry" />
        </mxCell>
        <mxCell id="CXwAQgRN35xxSamlwrBf-35" value="PHONE NUMBER" style="ellipse;whiteSpace=wrap;html=1;align=center;dashed=1;" parent="1" vertex="1">
          <mxGeometry x="850" y="230" width="100" height="40" as="geometry" />
        </mxCell>
        <mxCell id="CXwAQgRN35xxSamlwrBf-36" value="EMAILL" style="ellipse;whiteSpace=wrap;html=1;align=center;" parent="1" vertex="1">
          <mxGeometry x="680" y="120" width="100" height="40" as="geometry" />
        </mxCell>
        <mxCell id="eC1AK_5KEr0Wa4dRXDWK-3" style="edgeStyle=orthogonalEdgeStyle;rounded=0;orthogonalLoop=1;jettySize=auto;html=1;exitX=0.5;exitY=1;exitDx=0;exitDy=0;" parent="1" source="CXwAQgRN35xxSamlwrBf-39" edge="1">
          <mxGeometry relative="1" as="geometry">
            <mxPoint x="640" y="350" as="targetPoint" />
          </mxGeometry>
        </mxCell>
        <mxCell id="CXwAQgRN35xxSamlwrBf-39" value="MEMEBRID" style="ellipse;whiteSpace=wrap;html=1;align=center;dashed=1;" parent="1" vertex="1">
          <mxGeometry x="590" y="340" width="100" height="40" as="geometry" />
        </mxCell>
        <mxCell id="CXwAQgRN35xxSamlwrBf-40" value="ISSUE" style="ellipse;whiteSpace=wrap;html=1;align=center;" parent="1" vertex="1">
          <mxGeometry x="360" y="360" width="100" height="40" as="geometry" />
        </mxCell>
        <mxCell id="CXwAQgRN35xxSamlwrBf-37" value="EXPIREDATE" style="ellipse;whiteSpace=wrap;html=1;align=center;fontStyle=4;" parent="1" vertex="1">
          <mxGeometry x="220" y="180" width="100" height="40" as="geometry" />
        </mxCell>
        <mxCell id="CXwAQgRN35xxSamlwrBf-49" value="RETUREN&lt;div&gt;DATE&lt;/div&gt;" style="ellipse;whiteSpace=wrap;html=1;align=center;" parent="1" vertex="1">
          <mxGeometry x="250" y="340" width="100" height="40" as="geometry" />
        </mxCell>
        <mxCell id="CXwAQgRN35xxSamlwrBf-48" value="pickup date" style="ellipse;whiteSpace=wrap;html=1;align=center;dashed=1;" parent="1" vertex="1">
          <mxGeometry x="590" y="540" width="100" height="40" as="geometry" />
        </mxCell>
        <mxCell id="eC1AK_5KEr0Wa4dRXDWK-2" value="availbality" style="ellipse;whiteSpace=wrap;html=1;align=center;" parent="1" vertex="1">
          <mxGeometry x="325" y="480" width="100" height="40" as="geometry" />
        </mxCell>
        <mxCell id="eC1AK_5KEr0Wa4dRXDWK-4" value="" style="edgeStyle=entityRelationEdgeStyle;fontSize=12;html=1;endArrow=ERzeroToMany;startArrow=ERmandOne;rounded=0;exitX=1;exitY=0.5;exitDx=0;exitDy=0;" parent="1" target="CXwAQgRN35xxSamlwrBf-10" edge="1">
          <mxGeometry width="100" height="100" relative="1" as="geometry">
            <mxPoint x="90" y="278.75" as="sourcePoint" />
            <mxPoint x="280" y="271.25" as="targetPoint" />
            <Array as="points">
              <mxPoint x="270" y="261.25" />
            </Array>
          </mxGeometry>
        </mxCell>
        <mxCell id="eC1AK_5KEr0Wa4dRXDWK-6" style="edgeStyle=orthogonalEdgeStyle;rounded=0;orthogonalLoop=1;jettySize=auto;html=1;entryX=0.356;entryY=0.04;entryDx=0;entryDy=0;entryPerimeter=0;" parent="1" source="CXwAQgRN35xxSamlwrBf-10" target="eC1AK_5KEr0Wa4dRXDWK-2" edge="1">
          <mxGeometry relative="1" as="geometry" />
        </mxCell>
        <mxCell id="eC1AK_5KEr0Wa4dRXDWK-7" style="edgeStyle=orthogonalEdgeStyle;rounded=0;orthogonalLoop=1;jettySize=auto;html=1;exitX=0;exitY=1;exitDx=0;exitDy=0;entryX=0.7;entryY=0;entryDx=0;entryDy=0;entryPerimeter=0;" parent="1" target="CXwAQgRN35xxSamlwrBf-39" edge="1">
          <mxGeometry relative="1" as="geometry">
            <mxPoint x="630" y="265" as="sourcePoint" />
            <Array as="points">
              <mxPoint x="720" y="265" />
              <mxPoint x="720" y="310" />
              <mxPoint x="670" y="310" />
              <mxPoint x="670" y="340" />
            </Array>
          </mxGeometry>
        </mxCell>
        <mxCell id="eC1AK_5KEr0Wa4dRXDWK-8" style="edgeStyle=orthogonalEdgeStyle;rounded=0;orthogonalLoop=1;jettySize=auto;html=1;exitX=1;exitY=0.5;exitDx=0;exitDy=0;" parent="1" edge="1">
          <mxGeometry relative="1" as="geometry">
            <mxPoint x="850" y="245" as="sourcePoint" />
            <mxPoint x="740" y="265" as="targetPoint" />
          </mxGeometry>
        </mxCell>
        <mxCell id="eC1AK_5KEr0Wa4dRXDWK-12" style="edgeStyle=orthogonalEdgeStyle;rounded=0;orthogonalLoop=1;jettySize=auto;html=1;" parent="1" source="eC1AK_5KEr0Wa4dRXDWK-9" edge="1">
          <mxGeometry relative="1" as="geometry">
            <mxPoint x="720" y="170" as="targetPoint" />
          </mxGeometry>
        </mxCell>
        <mxCell id="eC1AK_5KEr0Wa4dRXDWK-9" value="MEMBER" style="whiteSpace=wrap;html=1;" parent="1" vertex="1">
          <mxGeometry x="660" y="240" width="120" height="60" as="geometry" />
        </mxCell>
        <mxCell id="eC1AK_5KEr0Wa4dRXDWK-11" style="edgeStyle=orthogonalEdgeStyle;rounded=0;orthogonalLoop=1;jettySize=auto;html=1;exitX=1;exitY=0;exitDx=0;exitDy=0;entryX=0.228;entryY=1.02;entryDx=0;entryDy=0;entryPerimeter=0;" parent="1" source="eC1AK_5KEr0Wa4dRXDWK-9" target="CXwAQgRN35xxSamlwrBf-32" edge="1">
          <mxGeometry relative="1" as="geometry" />
        </mxCell>
        <mxCell id="eC1AK_5KEr0Wa4dRXDWK-13" style="edgeStyle=orthogonalEdgeStyle;rounded=0;orthogonalLoop=1;jettySize=auto;html=1;exitX=0;exitY=0;exitDx=0;exitDy=0;entryX=0.748;entryY=0.93;entryDx=0;entryDy=0;entryPerimeter=0;" parent="1" source="eC1AK_5KEr0Wa4dRXDWK-9" target="CXwAQgRN35xxSamlwrBf-34" edge="1">
          <mxGeometry relative="1" as="geometry" />
        </mxCell>
        <mxCell id="eC1AK_5KEr0Wa4dRXDWK-19" value="DUEDATE" style="ellipse;whiteSpace=wrap;html=1;align=center;fontStyle=4;" parent="1" vertex="1">
          <mxGeometry x="260" y="400" width="100" height="40" as="geometry" />
        </mxCell>
        <mxCell id="eC1AK_5KEr0Wa4dRXDWK-20" value="RENEWAL DATE" style="ellipse;whiteSpace=wrap;html=1;align=center;" parent="1" vertex="1">
          <mxGeometry x="820" y="80" width="100" height="40" as="geometry" />
        </mxCell>
        <mxCell id="eC1AK_5KEr0Wa4dRXDWK-21" value="LEND" style="ellipse;whiteSpace=wrap;html=1;align=center;" parent="1" vertex="1">
          <mxGeometry x="800" y="540" width="100" height="40" as="geometry" />
        </mxCell>
        <mxCell id="eC1AK_5KEr0Wa4dRXDWK-23" value="USER ID" style="ellipse;whiteSpace=wrap;html=1;align=center;" parent="1" vertex="1">
          <mxGeometry x="740" y="360" width="100" height="40" as="geometry" />
        </mxCell>
        <mxCell id="jmydCTeTB-2I-J8kcOm2-4" style="edgeStyle=orthogonalEdgeStyle;rounded=0;orthogonalLoop=1;jettySize=auto;html=1;exitX=1;exitY=0;exitDx=0;exitDy=0;" parent="1" source="eC1AK_5KEr0Wa4dRXDWK-26" edge="1">
          <mxGeometry relative="1" as="geometry">
            <mxPoint x="50" y="460" as="targetPoint" />
            <Array as="points">
              <mxPoint x="90" y="479" />
              <mxPoint x="90" y="460" />
            </Array>
          </mxGeometry>
        </mxCell>
        <mxCell id="eC1AK_5KEr0Wa4dRXDWK-26" value="PUBLISH" style="ellipse;whiteSpace=wrap;html=1;align=center;" parent="1" vertex="1">
          <mxGeometry x="-40" y="470" width="100" height="60" as="geometry" />
        </mxCell>
        <mxCell id="eC1AK_5KEr0Wa4dRXDWK-29" value="" style="edgeStyle=entityRelationEdgeStyle;fontSize=12;html=1;endArrow=ERzeroToMany;startArrow=ERmandOne;rounded=0;exitX=1;exitY=0.5;exitDx=0;exitDy=0;" parent="1" source="CXwAQgRN35xxSamlwrBf-10" edge="1">
          <mxGeometry width="100" height="100" relative="1" as="geometry">
            <mxPoint x="560" y="380" as="sourcePoint" />
            <mxPoint x="660" y="280" as="targetPoint" />
          </mxGeometry>
        </mxCell>
        <mxCell id="eC1AK_5KEr0Wa4dRXDWK-30" style="edgeStyle=orthogonalEdgeStyle;rounded=0;orthogonalLoop=1;jettySize=auto;html=1;exitX=0;exitY=0.5;exitDx=0;exitDy=0;entryX=0.833;entryY=1;entryDx=0;entryDy=0;entryPerimeter=0;" parent="1" source="CXwAQgRN35xxSamlwrBf-31" target="eC1AK_5KEr0Wa4dRXDWK-9" edge="1">
          <mxGeometry relative="1" as="geometry" />
        </mxCell>
        <mxCell id="jmydCTeTB-2I-J8kcOm2-2" value="" style="edgeStyle=entityRelationEdgeStyle;fontSize=12;html=1;endArrow=ERzeroToOne;startArrow=ERmandOne;rounded=0;" parent="1" edge="1">
          <mxGeometry width="100" height="100" relative="1" as="geometry">
            <mxPoint x="10" y="460" as="sourcePoint" />
            <mxPoint x="50" y="310" as="targetPoint" />
            <Array as="points">
              <mxPoint x="20" y="460" />
              <mxPoint x="-150" y="380" />
              <mxPoint x="-150" y="390" />
              <mxPoint x="-480" y="320" />
              <mxPoint x="10" y="310" />
            </Array>
          </mxGeometry>
        </mxCell>
        <mxCell id="jmydCTeTB-2I-J8kcOm2-5" value="PUBLISHERID" style="ellipse;whiteSpace=wrap;html=1;align=center;" parent="1" vertex="1">
          <mxGeometry x="-160" y="490" width="100" height="40" as="geometry" />
        </mxCell>
        <mxCell id="jmydCTeTB-2I-J8kcOm2-6" value="ADDRESS" style="ellipse;shape=doubleEllipse;margin=3;whiteSpace=wrap;html=1;align=center;" parent="1" vertex="1">
          <mxGeometry x="30" y="550" width="100" height="40" as="geometry" />
        </mxCell>
        <mxCell id="jmydCTeTB-2I-J8kcOm2-7" value="PUPLISHERNAME" style="ellipse;whiteSpace=wrap;html=1;align=center;" parent="1" vertex="1">
          <mxGeometry x="90" y="450" width="100" height="40" as="geometry" />
        </mxCell>
        <mxCell id="wnWESZ2sgjdwJee5JBT--2" style="edgeStyle=orthogonalEdgeStyle;rounded=0;orthogonalLoop=1;jettySize=auto;html=1;entryX=0.56;entryY=0.987;entryDx=0;entryDy=0;entryPerimeter=0;" edge="1" parent="1" source="wnWESZ2sgjdwJee5JBT--1" target="eC1AK_5KEr0Wa4dRXDWK-9">
          <mxGeometry relative="1" as="geometry">
            <mxPoint x="730" y="350" as="targetPoint" />
          </mxGeometry>
        </mxCell>
        <mxCell id="wnWESZ2sgjdwJee5JBT--1" value="LOAN" style="shape=ext;margin=3;double=1;whiteSpace=wrap;html=1;align=center;" vertex="1" parent="1">
          <mxGeometry x="680" y="470" width="100" height="40" as="geometry" />
        </mxCell>
        <mxCell id="wnWESZ2sgjdwJee5JBT--3" value="RETUREN" style="ellipse;whiteSpace=wrap;html=1;align=center;" vertex="1" parent="1">
          <mxGeometry x="800" y="480" width="100" height="40" as="geometry" />
        </mxCell>
      </root>
    </mxGraphModel>
  </diagram>
</mxfile>
